<?xml version="1.0" standalone="no"?>
<!DOCTYPE svg PUBLIC "-//W3C//DTD SVG 20010904//EN"
 "http://www.w3.org/TR/2001/REC-SVG-20010904/DTD/svg10.dtd">
<svg version="1.0" xmlns="http://www.w3.org/2000/svg"
 width="952.000000pt" height="952.000000pt" viewBox="0 0 952.000000 952.000000"
 preserveAspectRatio="xMidYMid meet">
<metadata>
Created by potrace 1.14, written by Peter Selinger 2001-2017
</metadata>
<g transform="translate(0.000000,952.000000) scale(0.100000,-0.100000)"
fill="#000000" stroke="none">
<path d="M700 5660 l0 -3860 50 -50 c61 -61 82 -100 75 -140 -4 -22 0 -35 16
-51 11 -11 23 -32 25 -47 3 -14 13 -33 24 -42 10 -9 18 -23 18 -30 -2 -35 3
-50 16 -50 8 0 18 -10 21 -22 4 -13 25 -46 46 -75 22 -29 39 -59 39 -68 0 -13
30 -46 171 -194 8 -9 23 -29 33 -44 29 -47 50 -68 81 -82 17 -7 51 -33 76 -58
26 -25 66 -55 90 -67 23 -12 49 -28 56 -36 8 -7 19 -11 26 -8 7 2 22 -3 33
-13 21 -19 34 -24 78 -28 16 -2 31 -7 35 -12 13 -20 48 -31 83 -27 28 4 40 1
56 -16 11 -12 25 -19 31 -15 6 3 11 3 11 -2 0 -4 46 -8 103 -9 119 -1 138 -4
153 -23 8 -10 37 -15 93 -17 45 -2 86 -6 91 -9 5 -3 11 -1 15 4 3 7 15 7 29 1
13 -5 27 -6 30 -3 3 3 24 7 46 7 26 1 44 8 53 21 14 17 32 19 331 19 174 1
316 4 316 8 0 4 11 3 24 -2 13 -5 26 -7 29 -4 2 3 15 7 27 9 13 3 27 9 30 15
19 30 113 27 132 -3 4 -7 22 -13 40 -14 18 0 33 -2 33 -3 0 -1 185 -3 411 -4
408 -2 411 -3 432 -24 17 -17 31 -21 58 -19 26 3 37 0 44 -14 6 -9 23 -20 40
-24 16 -4 30 -11 30 -16 0 -5 7 -9 15 -9 8 0 22 -11 31 -25 9 -14 21 -25 28
-25 6 0 22 -15 35 -33 13 -17 43 -48 66 -67 23 -19 51 -47 61 -62 10 -15 29
-32 41 -39 12 -7 20 -16 17 -21 -3 -4 -1 -8 3 -8 5 0 8 -23 8 -51 0 -42 3 -52
18 -55 12 -2 17 5 18 24 1 15 1 31 0 35 -1 5 8 16 19 25 12 9 22 25 24 34 1
10 12 29 24 43 12 14 20 25 17 25 -6 0 143 148 188 187 20 17 37 29 37 26 0
-3 7 0 15 7 8 7 15 9 15 5 0 -4 11 4 24 18 16 17 31 24 44 20 14 -3 25 2 36
19 l15 24 315 -1 c189 0 312 3 309 9 -4 5 0 6 8 0 19 -12 959 -12 952 0 -4 5
0 6 8 0 8 -4 50 -9 94 -9 71 -1 83 2 103 22 13 13 33 23 45 24 30 1 135 -2
175 -5 19 -1 40 5 50 14 9 9 20 17 25 18 4 1 8 3 10 3 1 1 54 3 117 4 63 2
125 3 137 4 12 1 30 10 40 20 15 15 30 18 82 16 57 -2 67 0 87 22 13 14 28 22
33 19 6 -4 19 2 30 13 11 11 22 17 25 14 3 -4 6 -1 6 6 0 7 8 11 18 9 9 -1 22
0 27 4 6 3 31 18 57 32 26 15 68 46 93 71 25 24 61 50 80 57 19 6 35 16 35 21
0 4 4 6 9 2 5 -3 12 4 16 15 3 11 11 20 17 20 21 0 154 150 173 197 8 18 25
43 39 56 13 13 28 35 31 49 4 15 14 33 23 42 10 9 29 27 44 41 16 15 25 33 23
44 -2 11 5 27 16 37 10 9 19 23 19 31 0 8 4 12 9 9 5 -4 7 3 4 15 -4 12 2 27
14 38 14 13 19 30 18 52 -3 33 27 98 46 100 10 2 25 5 37 9 4 1 14 3 22 4 13
1 15 440 18 3879 l2 3877 -4060 0 -4060 0 0 -3860z"/>
</g>
</svg>
